<?xml version="1.0" encoding="UTF-8"?>
<!-- Generator: Adobe Illustrator 24.2.0, SVG Export Plug-In . SVG Version: 6.00 Build 0)  -->
<svg version="1.1" id="레이어_1" xmlns="http://www.w3.org/2000/svg" xmlns:xlink="http://www.w3.org/1999/xlink" x="0px" y="0px" viewBox="0 0 145 45" style="enable-background:new 0 0 145 45;" xml:space="preserve">
<style type="text/css">
	.st0{fill:#4CAED5;}
	.st1{fill:#818285;}
	.st2{fill:#7D818A;}
</style>
<g>
	<g>
		<g>
			<path class="st0" d="M14.91,24.69H2.21c-1.21,0-2.19-0.98-2.19-2.19c0-1.21,0.98-2.19,2.19-2.19h12.7c1.21,0,2.19,0.98,2.19,2.19     C17.1,23.71,16.12,24.69,14.91,24.69z"/>
		</g>
		<g>
			<path class="st0" d="M14.79,30.51l-8.98,8.98c-0.86,0.86-2.24,0.86-3.1,0c-0.86-0.86-0.86-2.24,0-3.1l8.98-8.98     c0.86-0.86,2.25-0.86,3.1,0C15.65,28.27,15.65,29.66,14.79,30.51z"/>
		</g>
		<g>
			<path class="st1" d="M37.79,24.69h-12.7c-1.21,0-2.19-0.98-2.19-2.19c0-1.21,0.98-2.19,2.19-2.19h12.7     c1.21,0,2.19,0.98,2.19,2.19C39.99,23.71,39.01,24.69,37.79,24.69z"/>
		</g>
		<g>
			<path class="st1" d="M17.81,17.41V4.71c0-1.21,0.98-2.19,2.19-2.19c1.21,0,2.19,0.98,2.19,2.19v12.7c0,1.21-0.98,2.19-2.19,2.19     C18.79,19.6,17.81,18.62,17.81,17.41z"/>
		</g>
		<g>
			<path class="st0" d="M17.81,40.29v-12.7c0-1.21,0.98-2.19,2.19-2.19c1.21,0,2.19,0.98,2.19,2.19v12.7c0,1.21-0.98,2.19-2.19,2.19     C18.79,42.49,17.81,41.5,17.81,40.29z"/>
		</g>
		<path class="st1" d="M11.25,14.36h-0.98H7.23H6.25c-0.7,0-0.97-0.49-0.62-1.09l0.5-0.85c0,0,0,0,0,0l0.74-1.24l1.24-2.09    c0.35-0.6,0.93-0.6,1.29,0l0.5,0.85c0,0,0,0,0,0l0.74,1.24l1.24,2.09C12.23,13.87,11.95,14.36,11.25,14.36z"/>
		<circle class="st1" cx="31.44" cy="11.5" r="2.86"/>
		<path class="st1" d="M28.96,30.89c-0.36,0-0.65,0.29-0.65,0.65v4.41c0,0.36,0.29,0.65,0.65,0.65h4.41c0.36,0,0.65-0.29,0.65-0.65    v-4.41c0-0.36-0.29-0.65-0.65-0.65H28.96z"/>
	</g>
	<g>
		<path class="st2" d="M70.83,10.32c-0.37,0-0.72,0.11-1.06,0.33c-0.36,0.23-0.61,0.57-0.75,1.01l-6.43,19.57    c-0.05,0.17-0.13,0.26-0.39,0.26c-0.14,0-0.18-0.02-0.23-0.23l-6.33-19.72c-0.14-0.44-0.38-0.78-0.72-1    c-0.32-0.21-0.68-0.31-1.07-0.31c-0.51,0-0.96,0.16-1.35,0.47c-0.4,0.33-0.62,0.79-0.62,1.33v0.19c0,0.15,0.04,0.3,0.12,0.45    l6.23,19.71c0.3,0.87,0.83,1.58,1.56,2.1c0.73,0.52,1.54,0.78,2.42,0.78c0.89,0,1.73-0.26,2.49-0.78c0.77-0.52,1.3-1.23,1.59-2.11    l6.34-19.59l0,0c0.08-0.24,0.11-0.45,0.11-0.65c0-0.54-0.21-1-0.6-1.33C71.76,10.48,71.32,10.32,70.83,10.32z"/>
		<path class="st2" d="M112.57,31.01l-10.26-0.09l-0.09-19.68c0-0.58-0.19-1.05-0.57-1.4c-0.36-0.34-0.8-0.51-1.3-0.51    c-0.52,0-0.97,0.16-1.32,0.49c-0.36,0.34-0.55,0.81-0.55,1.41v21.7c0,1.23,0.66,1.93,1.81,1.93h12.28c0.59,0,1.06-0.2,1.39-0.6    c0.32-0.37,0.48-0.82,0.48-1.34c0-0.52-0.16-0.97-0.48-1.34C113.62,31.21,113.15,31.01,112.57,31.01z"/>
		<path class="st2" d="M133.07,10.54h-16.25c-0.59,0-1.06,0.2-1.41,0.6c-0.33,0.38-0.5,0.83-0.5,1.34c0,0.51,0.16,0.96,0.48,1.33    c0.34,0.39,0.81,0.59,1.42,0.59l6.07-0.03V33.6c0,0.61,0.23,1.11,0.65,1.45c0.4,0.32,0.87,0.48,1.4,0.48    c0.54,0,1.01-0.17,1.4-0.51c0.41-0.35,0.62-0.84,0.62-1.42l-0.06-19.2h6.16c0.61,0,1.09-0.2,1.42-0.59    c0.32-0.37,0.48-0.82,0.48-1.33c0-0.53-0.16-0.99-0.48-1.36C134.15,10.73,133.67,10.54,133.07,10.54z"/>
		<path class="st2" d="M139.85,9.9c-0.39-0.27-0.85-0.4-1.39-0.4c-0.54,0-1.01,0.14-1.4,0.42c-0.43,0.31-0.66,0.77-0.66,1.32v22.65    c0,0.55,0.23,1.01,0.67,1.34c0.4,0.29,0.87,0.44,1.39,0.44c0.57,0,1.05-0.14,1.42-0.43c0.42-0.31,0.63-0.78,0.63-1.35V11.24    C140.51,10.66,140.28,10.2,139.85,9.9z"/>
		<path class="st2" d="M90.16,12.38c-0.26-0.78-0.7-1.41-1.3-1.87c-0.78-0.59-1.79-0.89-3-0.89c-1.32,0-2.4,0.32-3.2,0.95    c-0.64,0.5-1.13,1.22-1.45,2.14l-3.46,9.55l-0.65,0c-0.6,0-1.14,0.21-1.46,0.57c-0.32,0.36-0.48,0.8-0.48,1.31    c0,0.5,0.16,0.94,0.49,1.31c0.21,0.23,0.47,0.41,0.77,0.51l-2.43,6.71c-0.1,0.23-0.15,0.46-0.15,0.69c0,0.54,0.22,1.01,0.64,1.34    c0.39,0.31,0.84,0.47,1.32,0.47c0.39,0,0.74-0.1,1.04-0.3c0.31-0.2,0.54-0.53,0.7-0.96l2.94-7.88h6.32c0.55,0,1.08-0.23,1.43-0.63    c0.32-0.36,0.49-0.8,0.49-1.31c0-0.5-0.16-0.94-0.48-1.31c-0.32-0.36-0.85-0.57-1.46-0.57l-4.94,0.01l2.99-8.33    c0.05-0.17,0.13-0.28,0.27-0.35c0.18-0.1,0.39-0.15,0.63-0.15c0.26,0,0.47,0.04,0.61,0.11c0.08,0.04,0.17,0.19,0.23,0.42    l6.76,19.85c0.3,0.82,0.91,1.27,1.74,1.27c0.51,0,0.97-0.17,1.37-0.51c0.41-0.35,0.62-0.8,0.62-1.29c0-0.22-0.04-0.44-0.12-0.66    L90.16,12.38z"/>
	</g>
	
</g>
</svg>